<?xml version="1.0" encoding="utf-8"?>
<!-- Generator: Adobe Illustrator 24.1.0, SVG Export Plug-In . SVG Version: 6.00 Build 0)  -->
<svg version="1.1" id="Layer_1" xmlns="http://www.w3.org/2000/svg" xmlns:xlink="http://www.w3.org/1999/xlink" x="0px" y="0px"
	 viewBox="0 0 518 452" style="enable-background:new 0 0 518 452;" xml:space="preserve">
<style type="text/css">
	.st0{fill:#61DAFB;}
	.st1{fill:none;}
</style>
<path class="st0" d="M260.1,270c25.2,0,45.7-20.5,45.7-45.7c0-25.2-20.5-45.7-45.7-45.7c-25.2,0-45.7,20.5-45.7,45.7
	C214.4,249.5,234.9,270,260.1,270z"/>
<circle class="st0" cx="145.2" cy="22.7" r="21.4"/>
<circle class="st0" cx="375.7" cy="429.3" r="21.4"/>
<circle class="st0" cx="375.7" cy="22.7" r="21.4"/>
<circle class="st0" cx="25.6" cy="225.9" r="21.4"/>
<circle class="st0" cx="492.4" cy="225.6" r="21.4"/>
<circle class="st0" cx="138.6" cy="423.2" r="21.4"/>
<g>
	<path class="st1" d="M232.6,325.8c9.2,11.7,18.5,22.4,27.8,32c9.2-9.6,18.5-20.3,27.5-32c-9.1,0.5-18.4,0.7-27.8,0.7
		C250.8,326.5,241.6,326.2,232.6,325.8z"/>
	<path class="st1" d="M158.5,251.5c-5.2,13.3-9.8,26.6-13.5,39.5c13.1,3.2,26.8,5.8,41,7.9c-4.9-7.6-9.7-15.4-14.4-23.4
		C166.9,267.5,162.6,259.5,158.5,251.5z"/>
	<path class="st1" d="M171.5,173.4c4.6-8.1,9.5-16,14.4-23.7c-14.3,2.1-28.1,4.8-41.2,7.9c3.8,13,8.4,26.4,13.8,39.8
		C162.6,189.4,166.9,181.4,171.5,173.4z"/>
	<path class="st1" d="M329.4,184.4c-7.8-13.4-15.9-26.1-24.2-38c-14.8-1.2-29.9-1.9-45-1.9c-15.2,0-30.3,0.7-45.2,2
		c-8.3,11.9-16.3,24.7-24.1,38.2c-7.5,13.1-14.5,26.5-20.7,39.9c6.3,13.4,13.2,26.7,20.8,39.8c7.8,13.4,15.9,26.1,24.2,38
		c14.8,1.2,29.9,1.9,45,1.9c15.2,0,30.3-0.7,45.2-2c8.3-11.9,16.3-24.7,24.1-38.2c7.5-13.1,14.4-26.5,20.7-39.9
		C343.9,210.8,337,197.5,329.4,184.4z"/>
	<path class="st1" d="M287.7,122.8c-9.2-11.7-18.5-22.4-27.8-32c-9.2,9.6-18.5,20.3-27.5,32c9.1-0.5,18.4-0.7,27.8-0.7
		C269.5,122.1,278.7,122.4,287.7,122.8z"/>
	<path class="st1" d="M348.8,275.2c-4.6,8.1-9.5,16-14.4,23.7c14.3-2.1,28.1-4.8,41.2-8c-3.8-13-8.4-26.4-13.8-39.8
		C357.7,259.1,353.4,267.2,348.8,275.2z"/>
	<path class="st1" d="M348.7,173.1c4.7,8,9,16,13.1,24c5.2-13.3,9.8-26.6,13.5-39.5c-13.1-3.2-26.8-5.8-41-7.9
		C339.2,157.3,344.1,165.1,348.7,173.1z"/>
	<path class="st0" d="M483.9,187.4L462,140.5c-1.3-2.8-5.5-2-5.7,1.1l-1.5,21.5c0,0,0,0,0,0l-0.1,0.3c-14.8-8.1-32.5-15.4-52.3-21.4
		c1.9-8.2,3.4-16.2,4.5-23.9c3.1-20.6,3.7-39.3,1.9-55.2c-0.7-6.2-6-10.9-12.3-10.9h-0.4c-6.2,0-10.5,5-9.6,11.1
		c1.7,12.2,1.7,27.1-0.3,43.5c-0.7,5.9-1.7,12-2.8,18.3c-0.7,3.7-1.4,7.4-2.3,11.1c-19.6-4.8-41-8.5-63.5-10.9
		C304,106.5,290,89.7,275.9,75c21-19.5,41.2-33.4,58.4-40.7c4.5-1.9,7.3-6.4,6.9-11.3c-0.7-7.6-8.5-12.2-15.5-9.2
		c-20.4,8.7-43,24.3-65.8,45.6c-13.3-12.3-26.5-22.8-39.3-31l17.5-11.3c2.6-1.7,1.3-5.7-1.8-5.5l-51.6,3.4c-1.9,0.1-3.2,2-2.7,3.8
		l13.8,49.5c0.8,3,5,2.9,5.8-0.1l5.5-22c11.7,7.4,24.2,17.1,36.9,28.9c-14,14.7-28,31.4-41.3,49.9c-22.6,2.4-44,6.1-63.6,11
		c-2.3-10-4-19.7-5.2-29c-1-7.8-1.5-15.3-1.6-22.3l21,6.4c2.9,0.9,5.2-2.7,3.1-4.9l-35.2-37.5c-1.3-1.4-3.6-1.2-4.6,0.3L87,91.4
		c-1.8,2.5,1,5.8,3.8,4.4l19.4-9.4c0.4,16.8,2.9,35.5,7.5,55.6c-31.3,9.7-57.1,22.2-75,36.5c-6.2,4.9-5.5,14.4,1.3,18.4l0,0
		c3.9,2.3,8.9,1.9,12.4-0.9c9.9-7.8,23.2-15.5,39-22.2c8.6-3.7,18-7,27.7-10.1c5.7,19.6,13.2,40,22.5,60.9
		c-9.2,20.8-16.6,41.1-22.2,60.6c-9.9-3.1-19.3-6.5-28-10.2c-14.7-6.3-27.3-13.4-36.9-20.7c-3.8-2.9-9.1-3-13-0.3h0
		c-6.3,4.3-6.5,13.5-0.4,18.1c17.9,13.5,42.9,25.4,73,34.6c-4,17.6-6.4,34.2-7.2,49.4l-21.7-11.8c-2.7-1.5-5.6,1.6-4,4.2l27.7,43.7
		c1,1.6,3.3,1.9,4.6,0.5l36.9-35.9c2.2-2.1,0.1-5.8-2.8-5.1l-18.5,4.7c0.2-4.7,0.7-9.5,1.3-14.5c1.1-9.4,2.9-19.3,5.1-29.4
		c19.6,4.8,41,8.5,63.5,10.9c13.5,18.5,27.5,35.3,41.6,50c-15.7,14.6-30.9,26-44.8,33.9l-4.9-24.3c-0.6-3-4.8-3.3-5.8-0.3
		l-16.1,48.8c-0.6,1.8,0.6,3.7,2.5,3.9l51.4,5.7c3.1,0.3,4.6-3.6,2.1-5.4l-15.3-10.9c15.1-8.9,31-21.1,47-36
		c22.7,21.1,45.3,36.6,65.8,45.3c7.3,3.1,15.4-2.3,15.4-10.2v0c0-4.4-2.6-8.5-6.7-10.2c-17.3-7.3-37.6-21.1-58.7-40.6
		c14-14.7,28-31.4,41.3-49.9c22.6-2.4,44-6.1,63.6-11c2.3,10.1,4.1,19.8,5.2,29.1c2.1,17.4,2.1,33,0.2,45.6c-0.6,4,0.9,8,4.1,10.5
		l0.3,0.3c6.6,5.2,16.4,1.4,17.8-6.9c3.6-22.8,1.7-51.9-5.8-84.5c17.3-5.3,33-11.6,46.5-18.5l0.2-0.1l1,20.9c0.2,3.1,4.3,4,5.7,1.2
		l22.9-46.4c0.8-1.7-0.1-3.8-1.9-4.2l-49.8-12.8c-3-0.8-5,2.9-2.8,5.1l16.3,15.8l-0.2-0.1c-4.9,2.6-10.3,5.1-15.9,7.5
		c-8.6,3.7-18,7-27.7,10.1c-5.7-19.6-13.2-40-22.5-60.9c9.2-20.8,16.6-41.1,22.2-60.6c9.9,3.1,19.3,6.5,28.1,10.2
		c7.2,3.1,13.9,6.3,20,9.7l-15.9,14.8c-2.3,2.1-0.3,5.8,2.7,5.1l50.1-11.7C483.7,191.1,484.7,189.1,483.9,187.4z M259.9,90.8
		c9.3,9.6,18.6,20.3,27.8,32c-9-0.4-18.2-0.7-27.5-0.7c-9.4,0-18.7,0.2-27.8,0.7C241.4,111.1,250.7,100.4,259.9,90.8z M144.7,157.6
		c13.1-3.1,26.9-5.8,41.2-7.9c-4.9,7.7-9.8,15.6-14.4,23.7c-4.6,8-8.9,16-13,24C153.1,184,148.5,170.6,144.7,157.6z M145,291
		c3.7-12.9,8.3-26.2,13.5-39.5c4.1,8,8.4,16,13.1,24c4.7,8,9.5,15.8,14.4,23.4C171.8,296.8,158.1,294.2,145,291z M260.4,357.8
		c-9.3-9.6-18.6-20.3-27.8-32c9,0.4,18.2,0.7,27.5,0.7c9.4,0,18.7-0.2,27.8-0.7C278.9,337.5,269.6,348.2,260.4,357.8z M305.4,302.3
		c-14.9,1.3-30,2-45.2,2c-15.1,0-30.2-0.7-45-1.9c-8.3-11.9-16.4-24.6-24.2-38c-7.6-13.1-14.5-26.4-20.8-39.8
		c6.2-13.4,13.2-26.8,20.7-39.9c7.8-13.5,15.8-26.3,24.1-38.2c14.9-1.3,30-2,45.2-2c15.1,0,30.2,0.7,45,1.9
		c8.3,11.9,16.4,24.6,24.2,38c7.6,13.1,14.5,26.4,20.8,39.8c-6.3,13.4-13.2,26.8-20.7,39.9C321.7,277.6,313.7,290.4,305.4,302.3z
		 M375.6,290.9c-13.1,3.2-26.9,5.9-41.2,8c4.9-7.7,9.8-15.6,14.4-23.7c4.6-8,8.9-16.1,13-24.1C367.2,264.5,371.8,277.9,375.6,290.9z
		 M361.8,197.1c-4.1-8-8.4-16-13.1-24c-4.6-8-9.5-15.8-14.4-23.4c14.2,2.1,27.9,4.7,41,7.9C371.6,170.5,367,183.8,361.8,197.1z"/>
</g>
</svg>
